<svg width="22" height="25" viewBox="0 0 22 25" fill="none" xmlns="http://www.w3.org/2000/svg">
<path d="M10.9375 12.5011C14.3896 12.5011 17.1875 9.70325 17.1875 6.2511C17.1875 2.79895 14.3896 0.00109863 10.9375 0.00109863C7.48535 0.00109863 4.6875 2.79895 4.6875 6.2511C4.6875 9.70325 7.48535 12.5011 10.9375 12.5011ZM15.3125 14.0636H14.4971C13.4131 14.5616 12.207 14.8448 10.9375 14.8448C9.66797 14.8448 8.4668 14.5616 7.37793 14.0636H6.5625C2.93945 14.0636 0 17.0031 0 20.6261V22.6573C0 23.9513 1.0498 25.0011 2.34375 25.0011H19.5312C20.8252 25.0011 21.875 23.9513 21.875 22.6573V20.6261C21.875 17.0031 18.9355 14.0636 15.3125 14.0636Z" fill="black"/>
</svg>
